999
"DXF R12 Output" (www.mydxf.blogspot.com)
 0 
SECTION
 2 
HEADER
 9 
$ACADVER
 1 
AC1009
 9 
$EXTMIN
 10 
 0 
 20 
 0 
 9 
$EXTMAX
 10 
 8.5 
 20 
 11 
 0 
ENDSEC
 0 
SECTION
 2 
ENTITIES
0
LINE
8
Layer 1
10
0.793749
20
297.793749
11
-0.793749
21
296.206251
0
LINE
8
Layer 1
10
0.000000
20
298.322915
11
0.000000
21
295.677085
0
LINE
8
Layer 1
10
2.116664
20
295.941668
11
1.058332
21
294.883336
0
LINE
8
Layer 1
10
1.587498
20
296.470834
11
0.529166
21
295.412502
0
LINE
8
Layer 1
10
1.058332
20
297.000000
11
0.000000
21
295.941668
0
LINE
8
Layer 1
10
0.793749
20
297.793749
11
-0.793749
21
296.206251
0
LINE
8
Layer 1
10
0.000000
20
298.322915
11
0.000000
21
295.677085
0
LINE
8
Layer 1
10
2.116664
20
295.941668
11
1.058332
21
294.883336
0
LINE
8
Layer 1
10
1.587498
20
296.470834
11
0.529166
21
295.412502
0
LINE
8
Layer 1
10
1.058332
20
297.000000
11
0.000000
21
295.941668
0
LINE
8
Layer 1
10
20.846207
20
253.177016
11
21.011306
21
253.121454
0
LINE
8
Layer 1
10
21.011306
20
253.121454
11
21.159737
21
253.028850
0
LINE
8
Layer 1
10
21.159737
20
253.028850
11
21.282768
21
252.907142
0
LINE
8
Layer 1
10
21.282768
20
252.907142
11
21.374050
21
252.758975
0
LINE
8
Layer 1
10
21.374050
20
252.758975
11
21.429083
21
252.592288
0
LINE
8
Layer 1
10
21.429083
20
252.592288
11
21.444429
21
252.441475
0
LINE
8
Layer 1
10
21.444429
20
252.441475
11
21.444429
21
250.941290
0
LINE
8
Layer 1
10
21.444429
20
250.941290
11
21.429083
21
250.790478
0
LINE
8
Layer 1
10
21.429083
20
250.790478
11
21.374050
21
250.623790
0
LINE
8
Layer 1
10
21.374050
20
250.623790
11
21.282768
21
250.475624
0
LINE
8
Layer 1
10
21.282768
20
250.475624
11
21.159737
21
250.353916
0
LINE
8
Layer 1
10
21.159737
20
250.353916
11
21.011306
21
250.261312
0
LINE
8
Layer 1
10
21.011306
20
250.261312
11
20.846207
21
250.205749
0
LINE
8
Layer 1
10
20.846207
20
250.205749
11
20.694336
21
250.192520
0
LINE
8
Layer 1
10
20.694336
20
250.192520
11
18.194556
21
250.192520
0
LINE
8
Layer 1
10
18.194556
20
250.192520
11
18.042685
21
250.205749
0
LINE
8
Layer 1
10
18.042685
20
250.205749
11
17.877585
21
250.261312
0
LINE
8
Layer 1
10
17.877585
20
250.261312
11
17.729154
21
250.353916
0
LINE
8
Layer 1
10
17.729154
20
250.353916
11
17.606123
21
250.475624
0
LINE
8
Layer 1
10
17.606123
20
250.475624
11
17.514842
21
250.623790
0
LINE
8
Layer 1
10
17.514842
20
250.623790
11
17.460073
21
250.790478
0
LINE
8
Layer 1
10
17.460073
20
250.790478
11
17.444463
21
250.941290
0
LINE
8
Layer 1
10
17.444463
20
250.941290
11
17.444463
21
252.441475
0
LINE
8
Layer 1
10
17.444463
20
252.441475
11
17.460073
21
252.592288
0
LINE
8
Layer 1
10
17.460073
20
252.592288
11
17.514842
21
252.758975
0
LINE
8
Layer 1
10
17.514842
20
252.758975
11
17.606123
21
252.907142
0
LINE
8
Layer 1
10
17.606123
20
252.907142
11
17.729154
21
253.028850
0
LINE
8
Layer 1
10
17.729154
20
253.028850
11
17.877585
21
253.121454
0
LINE
8
Layer 1
10
17.877585
20
253.121454
11
18.042685
21
253.177016
0
LINE
8
Layer 1
10
18.042685
20
253.177016
11
18.194556
21
253.190245
0
LINE
8
Layer 1
10
18.194556
20
253.190245
11
20.694336
21
253.190245
0
LINE
8
Layer 1
10
20.694336
20
253.190245
11
20.846207
21
253.177016
0
LINE
8
Layer 1
10
25.246222
20
253.177016
11
25.411322
21
253.121454
0
LINE
8
Layer 1
10
25.411322
20
253.121454
11
25.559753
21
253.028850
0
LINE
8
Layer 1
10
25.559753
20
253.028850
11
25.682784
21
252.907142
0
LINE
8
Layer 1
10
25.682784
20
252.907142
11
25.774065
21
252.758975
0
LINE
8
Layer 1
10
25.774065
20
252.758975
11
25.828834
21
252.592288
0
LINE
8
Layer 1
10
25.828834
20
252.592288
11
25.844444
21
252.441475
0
LINE
8
Layer 1
10
25.844444
20
252.441475
11
25.844444
21
250.941290
0
LINE
8
Layer 1
10
25.844444
20
250.941290
11
25.828834
21
250.790478
0
LINE
8
Layer 1
10
25.828834
20
250.790478
11
25.774065
21
250.623790
0
LINE
8
Layer 1
10
25.774065
20
250.623790
11
25.682784
21
250.475624
0
LINE
8
Layer 1
10
25.682784
20
250.475624
11
25.559753
21
250.353916
0
LINE
8
Layer 1
10
25.559753
20
250.353916
11
25.411322
21
250.261312
0
LINE
8
Layer 1
10
25.411322
20
250.261312
11
25.246222
21
250.205749
0
LINE
8
Layer 1
10
25.246222
20
250.205749
11
25.094351
21
250.192520
0
LINE
8
Layer 1
10
25.094351
20
250.192520
11
22.594571
21
250.192520
0
LINE
8
Layer 1
10
22.594571
20
250.192520
11
22.442700
21
250.205749
0
LINE
8
Layer 1
10
22.442700
20
250.205749
11
22.277601
21
250.261312
0
LINE
8
Layer 1
10
22.277601
20
250.261312
11
22.129169
21
250.353916
0
LINE
8
Layer 1
10
22.129169
20
250.353916
11
22.006138
21
250.475624
0
LINE
8
Layer 1
10
22.006138
20
250.475624
11
21.914593
21
250.623790
0
LINE
8
Layer 1
10
21.914593
20
250.623790
11
21.859824
21
250.790478
0
LINE
8
Layer 1
10
21.859824
20
250.790478
11
21.844478
21
250.941290
0
LINE
8
Layer 1
10
21.844478
20
250.941290
11
21.844478
21
252.441475
0
LINE
8
Layer 1
10
21.844478
20
252.441475
11
21.859824
21
252.592288
0
LINE
8
Layer 1
10
21.859824
20
252.592288
11
21.914593
21
252.758975
0
LINE
8
Layer 1
10
21.914593
20
252.758975
11
22.006138
21
252.907142
0
LINE
8
Layer 1
10
22.006138
20
252.907142
11
22.129169
21
253.028850
0
LINE
8
Layer 1
10
22.129169
20
253.028850
11
22.277601
21
253.121454
0
LINE
8
Layer 1
10
22.277601
20
253.121454
11
22.442700
21
253.177016
0
LINE
8
Layer 1
10
22.442700
20
253.177016
11
22.594571
21
253.190245
0
LINE
8
Layer 1
10
22.594571
20
253.190245
11
25.094351
21
253.190245
0
LINE
8
Layer 1
10
25.094351
20
253.190245
11
25.246222
21
253.177016
0
LINE
8
Layer 1
10
30.973650
20
287.699806
11
31.158858
21
287.646889
0
LINE
8
Layer 1
10
31.158858
20
287.646889
11
31.329779
21
287.556931
0
LINE
8
Layer 1
10
31.329779
20
287.556931
11
31.479004
21
287.435223
0
LINE
8
Layer 1
10
31.479004
20
287.435223
11
31.600976
21
287.287057
0
LINE
8
Layer 1
10
31.600976
20
287.287057
11
31.690141
21
287.115078
0
LINE
8
Layer 1
10
31.690141
20
287.115078
11
31.743057
21
286.929870
0
LINE
8
Layer 1
10
31.743057
20
286.929870
11
31.758139
21
286.763182
0
LINE
8
Layer 1
10
31.758139
20
286.763182
11
31.758139
21
284.858185
0
LINE
8
Layer 1
10
31.758139
20
284.858185
11
31.743057
21
284.688852
0
LINE
8
Layer 1
10
31.743057
20
284.688852
11
31.690141
21
284.503643
0
LINE
8
Layer 1
10
31.690141
20
284.503643
11
31.600976
21
284.334310
0
LINE
8
Layer 1
10
31.600976
20
284.334310
11
31.479004
21
284.183498
0
LINE
8
Layer 1
10
31.479004
20
284.183498
11
31.329779
21
284.061790
0
LINE
8
Layer 1
10
31.329779
20
284.061790
11
31.158858
21
283.974477
0
LINE
8
Layer 1
10
31.158858
20
283.974477
11
30.973650
21
283.921561
0
LINE
8
Layer 1
10
30.973650
20
283.921561
11
30.805640
21
283.905686
0
LINE
8
Layer 1
10
30.805640
20
283.905686
11
28.901171
21
283.905686
0
LINE
8
Layer 1
10
28.901171
20
283.905686
11
28.733161
21
283.921561
0
LINE
8
Layer 1
10
28.733161
20
283.921561
11
28.547953
21
283.974477
0
LINE
8
Layer 1
10
28.547953
20
283.974477
11
28.377297
21
284.061790
0
LINE
8
Layer 1
10
28.377297
20
284.061790
11
28.227808
21
284.183498
0
LINE
8
Layer 1
10
28.227808
20
284.183498
11
28.106099
21
284.334310
0
LINE
8
Layer 1
10
28.106099
20
284.334310
11
28.016935
21
284.503643
0
LINE
8
Layer 1
10
28.016935
20
284.503643
11
27.964018
21
284.688852
0
LINE
8
Layer 1
10
27.964018
20
284.688852
11
27.948937
21
284.858185
0
LINE
8
Layer 1
10
27.948937
20
284.858185
11
27.948937
21
286.763182
0
LINE
8
Layer 1
10
27.948937
20
286.763182
11
27.964018
21
286.929870
0
LINE
8
Layer 1
10
27.964018
20
286.929870
11
28.016935
21
287.115078
0
LINE
8
Layer 1
10
28.016935
20
287.115078
11
28.106099
21
287.287057
0
LINE
8
Layer 1
10
28.106099
20
287.287057
11
28.227808
21
287.435223
0
LINE
8
Layer 1
10
28.227808
20
287.435223
11
28.377297
21
287.556931
0
LINE
8
Layer 1
10
28.377297
20
287.556931
11
28.547953
21
287.646889
0
LINE
8
Layer 1
10
28.547953
20
287.646889
11
28.733161
21
287.699806
0
LINE
8
Layer 1
10
28.733161
20
287.699806
11
28.901171
21
287.715681
0
LINE
8
Layer 1
10
28.901171
20
287.715681
11
30.805640
21
287.715681
0
LINE
8
Layer 1
10
30.805640
20
287.715681
11
30.973650
21
287.699806
0
LINE
8
Layer 1
10
14.510237
20
287.734202
11
14.695446
21
287.681285
0
LINE
8
Layer 1
10
14.695446
20
287.681285
11
14.866102
21
287.593973
0
LINE
8
Layer 1
10
14.866102
20
287.593973
11
15.015591
21
287.472265
0
LINE
8
Layer 1
10
15.015591
20
287.472265
11
15.137299
21
287.321452
0
LINE
8
Layer 1
10
15.137299
20
287.321452
11
15.226464
21
287.152119
0
LINE
8
Layer 1
10
15.226464
20
287.152119
11
15.279645
21
286.966911
0
LINE
8
Layer 1
10
15.279645
20
286.966911
11
15.294461
21
286.797578
0
LINE
8
Layer 1
10
15.294461
20
286.797578
11
15.294461
21
284.892580
0
LINE
8
Layer 1
10
15.294461
20
284.892580
11
15.279645
21
284.725893
0
LINE
8
Layer 1
10
15.279645
20
284.725893
11
15.226464
21
284.540685
0
LINE
8
Layer 1
10
15.226464
20
284.540685
11
15.137299
21
284.368706
0
LINE
8
Layer 1
10
15.137299
20
284.368706
11
15.015591
21
284.220540
0
LINE
8
Layer 1
10
15.015591
20
284.220540
11
14.866102
21
284.098831
0
LINE
8
Layer 1
10
14.866102
20
284.098831
11
14.695446
21
284.008873
0
LINE
8
Layer 1
10
14.695446
20
284.008873
11
14.510237
21
283.955957
0
LINE
8
Layer 1
10
14.510237
20
283.955957
11
14.342227
21
283.940082
0
LINE
8
Layer 1
10
14.342227
20
283.940082
11
12.437759
21
283.940082
0
LINE
8
Layer 1
10
12.437759
20
283.940082
11
12.269749
21
283.955957
0
LINE
8
Layer 1
10
12.269749
20
283.955957
11
12.084540
21
284.008873
0
LINE
8
Layer 1
10
12.084540
20
284.008873
11
11.913620
21
284.098831
0
LINE
8
Layer 1
10
11.913620
20
284.098831
11
11.764395
21
284.220540
0
LINE
8
Layer 1
10
11.764395
20
284.220540
11
11.642687
21
284.368706
0
LINE
8
Layer 1
10
11.642687
20
284.368706
11
11.553258
21
284.540685
0
LINE
8
Layer 1
10
11.553258
20
284.540685
11
11.500341
21
284.725893
0
LINE
8
Layer 1
10
11.500341
20
284.725893
11
11.485525
21
284.892580
0
LINE
8
Layer 1
10
11.485525
20
284.892580
11
11.485525
21
286.797578
0
LINE
8
Layer 1
10
11.485525
20
286.797578
11
11.500341
21
286.966911
0
LINE
8
Layer 1
10
11.500341
20
286.966911
11
11.553258
21
287.152119
0
LINE
8
Layer 1
10
11.553258
20
287.152119
11
11.642687
21
287.321452
0
LINE
8
Layer 1
10
11.642687
20
287.321452
11
11.764395
21
287.472265
0
LINE
8
Layer 1
10
11.764395
20
287.472265
11
11.913620
21
287.593973
0
LINE
8
Layer 1
10
11.913620
20
287.593973
11
12.084540
21
287.681285
0
LINE
8
Layer 1
10
12.084540
20
287.681285
11
12.269749
21
287.734202
0
LINE
8
Layer 1
10
12.269749
20
287.734202
11
12.437759
21
287.750077
0
LINE
8
Layer 1
10
12.437759
20
287.750077
11
14.342227
21
287.750077
0
LINE
8
Layer 1
10
14.342227
20
287.750077
11
14.510237
21
287.734202
0
LINE
8
Layer 1
10
7.548471
20
293.805270
11
36.553825
21
293.805270
0
LINE
8
Layer 1
10
36.553825
20
293.805270
11
38.026748
21
293.512288
0
LINE
8
Layer 1
10
38.026748
20
293.512288
11
39.275432
21
292.677944
0
LINE
8
Layer 1
10
39.275432
20
292.677944
11
40.109776
21
291.429260
0
LINE
8
Layer 1
10
40.109776
20
291.429260
11
40.402758
21
289.956337
0
LINE
8
Layer 1
10
40.402758
20
289.956337
11
40.402758
21
248.499836
0
LINE
8
Layer 1
10
40.402758
20
248.499836
11
40.109776
21
247.026913
0
LINE
8
Layer 1
10
40.109776
20
247.026913
11
39.275432
21
245.778230
0
LINE
8
Layer 1
10
39.275432
20
245.778230
11
38.026748
21
244.943886
0
LINE
8
Layer 1
10
38.026748
20
244.943886
11
36.553825
21
244.650903
0
LINE
8
Layer 1
10
36.553825
20
244.650903
11
7.548471
21
244.650903
0
LINE
8
Layer 1
10
7.548471
20
244.650903
11
6.075548
21
244.943886
0
LINE
8
Layer 1
10
6.075548
20
244.943886
11
4.826864
21
245.778230
0
LINE
8
Layer 1
10
4.826864
20
245.778230
11
3.992520
21
247.026913
0
LINE
8
Layer 1
10
3.992520
20
247.026913
11
3.699537
21
248.499836
0
LINE
8
Layer 1
10
3.699537
20
248.499836
11
3.699537
21
289.956337
0
LINE
8
Layer 1
10
3.699537
20
289.956337
11
3.992520
21
291.429260
0
LINE
8
Layer 1
10
3.992520
20
291.429260
11
4.826864
21
292.677944
0
LINE
8
Layer 1
10
4.826864
20
292.677944
11
6.075548
21
293.512288
0
LINE
8
Layer 1
10
6.075548
20
293.512288
11
7.548471
21
293.805270
0
LINE
8
Layer 1
10
7.548471
20
293.805270
11
7.548471
21
293.805270
 0 
ENDSEC
 0 
EOF