  0
SECTION
  2
HEADER
  9
$ANGBASE
  50
0.0
  9
$ANGDIR
  70
1
  9
$MEASUREMENT
  70
1
  0
ENDSEC
  0
SECTION
  2
TABLES
  0
TABLE
  2
LTYPE
  70
4
  0
LTYPE
  5
40F
  2
CONTINUOUS
  70
0
  3
Solid line
  72
65
  73
0
  40
0.0
  0
LTYPE
  5
410
  2
DASHDOT
 70
0
  3
Dash Dot ____ _ ____ _
 72
65
 73
4
 40
2.0
 49
1.25
 49
-0.25
 49
0.25
 49
-0.25
  0
LTYPE
  5
411
  2
DASHED
 70
0
  3
Dashed __ __ __ __ __
 72
65
 73
2
 40
0.75
 49
0.5
 49
-0.25
  0
LTYPE
  5
43B
  2
DOTTED
 70
0
  3
Dotted .  .  .  .
 72
65
 73
2
 40
0.2
 49
0.0
 49
-0.2
  0
ENDTAB
  0
TABLE
  2
STYLE
  70
4
  0
STYLE
  2
KICAD
  70
0
  40
0
  41
1
  42
1
  50
0
  71
0
  3
isocp.shx
  0
STYLE
  2
KICADB
  70
0
  40
0
  41
1
  42
1
  50
0
  71
0
  3
isocp.shx
  0
STYLE
  2
KICADI
  70
0
  40
0
  41
1
  42
1
  50
15
  71
0
  3
isocp.shx
  0
STYLE
  2
KICADBI
  70
0
  40
0
  41
1
  42
1
  50
15
  71
0
  3
isocp.shx
  0
ENDTAB
  0
TABLE
  2
LAYER
  70
1
  0
LAYER
  2
BLACK
  70
0
  62
7
  6
CONTINUOUS
  0
ENDTAB
  0
ENDSEC
  0
SECTION
  2
ENTITIES
0
LINE
8
BLACK
6
CONTINUOUS
10
186.
20
-50.9749999999999943
11
186.3713799999999878
21
-50.9921699999999944
0
LINE
8
BLACK
6
CONTINUOUS
10
186.3713799999999878
20
-50.9921699999999944
11
186.7395919999999876
21
-51.0435329999999965
0
LINE
8
BLACK
6
CONTINUOUS
10
186.7395919999999876
20
-51.0435329999999965
11
187.1014940000000024
21
-51.1286519999999953
0
LINE
8
BLACK
6
CONTINUOUS
10
187.1014940000000024
20
-51.1286519999999953
11
187.4539979999999844
21
-51.2467989999999958
0
LINE
8
BLACK
6
CONTINUOUS
10
187.4539979999999844
20
-51.2467989999999958
11
187.7940969999999936
21
-51.3969680000000011
0
LINE
8
BLACK
6
CONTINUOUS
10
187.7940969999999936
20
-51.3969680000000011
11
188.1188889999999958
21
-51.5778759999999963
0
LINE
8
BLACK
6
CONTINUOUS
10
188.1188889999999958
20
-51.5778759999999963
11
188.4256039999999928
21
-51.7879809999999949
0
LINE
8
BLACK
6
CONTINUOUS
10
188.4256039999999928
20
-51.7879809999999949
11
188.711624999999998
21
-52.0254890000000003
0
LINE
8
BLACK
6
CONTINUOUS
10
188.711624999999998
20
-52.0254890000000003
11
188.9745109999999784
21
-52.2883749999999949
0
LINE
8
BLACK
6
CONTINUOUS
10
188.9745109999999784
20
-52.2883749999999949
11
189.212018999999998
21
-52.5743960000000001
0
LINE
8
BLACK
6
CONTINUOUS
10
189.212018999999998
20
-52.5743960000000001
11
189.4221239999999966
21
-52.8811109999999971
0
LINE
8
BLACK
6
CONTINUOUS
10
189.4221239999999966
20
-52.8811109999999971
11
189.6030319999999847
21
-53.2059029999999993
0
LINE
8
BLACK
6
CONTINUOUS
10
189.6030319999999847
20
-53.2059029999999993
11
189.75320099999999
21
-53.5460019999999943
0
LINE
8
BLACK
6
CONTINUOUS
10
189.75320099999999
20
-53.5460019999999943
11
189.8713479999999834
21
-53.8985059999999976
0
LINE
8
BLACK
6
CONTINUOUS
10
189.8713479999999834
20
-53.8985059999999976
11
189.9564670000000035
21
-54.2604079999999982
0
LINE
8
BLACK
6
CONTINUOUS
10
189.9564670000000035
20
-54.2604079999999982
11
190.0078299999999842
21
-54.628619999999998
0
LINE
8
BLACK
6
CONTINUOUS
10
190.0078299999999842
20
-54.628619999999998
11
190.0249999999999773
21
-55.
0
LINE
8
BLACK
6
CONTINUOUS
10
190.0249999999999773
20
-55.
11
190.0249999999999773
21
-113.
0
LINE
8
BLACK
6
CONTINUOUS
10
190.0249999999999773
20
-113.
11
190.0078299999999842
21
-113.3713799999999878
0
LINE
8
BLACK
6
CONTINUOUS
10
190.0078299999999842
20
-113.3713799999999878
11
189.9564670000000035
21
-113.7395920000000018
0
LINE
8
BLACK
6
CONTINUOUS
10
189.9564670000000035
20
-113.7395920000000018
11
189.8713479999999834
21
-114.1014939999999882
0
LINE
8
BLACK
6
CONTINUOUS
10
189.8713479999999834
20
-114.1014939999999882
11
189.75320099999999
21
-114.4539979999999986
0
LINE
8
BLACK
6
CONTINUOUS
10
189.75320099999999
20
-114.4539979999999986
11
189.6030319999999847
21
-114.7940969999999936
0
LINE
8
BLACK
6
CONTINUOUS
10
189.6030319999999847
20
-114.7940969999999936
11
189.4221239999999966
21
-115.1188889999999958
0
LINE
8
BLACK
6
CONTINUOUS
10
189.4221239999999966
20
-115.1188889999999958
11
189.212018999999998
21
-115.4256039999999928
0
LINE
8
BLACK
6
CONTINUOUS
10
189.212018999999998
20
-115.4256039999999928
11
188.9745109999999784
21
-115.711624999999998
0
LINE
8
BLACK
6
CONTINUOUS
10
188.9745109999999784
20
-115.711624999999998
11
188.711624999999998
21
-115.9745109999999926
0
LINE
8
BLACK
6
CONTINUOUS
10
188.711624999999998
20
-115.9745109999999926
11
188.4256039999999928
21
-116.212018999999998
0
LINE
8
BLACK
6
CONTINUOUS
10
188.4256039999999928
20
-116.212018999999998
11
188.1188889999999958
21
-116.4221239999999966
0
LINE
8
BLACK
6
CONTINUOUS
10
188.1188889999999958
20
-116.4221239999999966
11
187.7940969999999936
21
-116.6030319999999989
0
LINE
8
BLACK
6
CONTINUOUS
10
187.7940969999999936
20
-116.6030319999999989
11
187.4539979999999844
21
-116.75320099999999
0
LINE
8
BLACK
6
CONTINUOUS
10
187.4539979999999844
20
-116.75320099999999
11
187.1014940000000024
21
-116.8713479999999976
0
LINE
8
BLACK
6
CONTINUOUS
10
187.1014940000000024
20
-116.8713479999999976
11
186.7395919999999876
21
-116.9564669999999893
0
LINE
8
BLACK
6
CONTINUOUS
10
186.7395919999999876
20
-116.9564669999999893
11
186.3713799999999878
21
-117.0078299999999984
0
LINE
8
BLACK
6
CONTINUOUS
10
186.3713799999999878
20
-117.0078299999999984
11
186.
21
-117.0249999999999915
0
LINE
8
BLACK
6
CONTINUOUS
10
186.
20
-117.0249999999999915
11
137.
21
-117.0249999999999915
0
LINE
8
BLACK
6
CONTINUOUS
10
137.
20
-117.0249999999999915
11
136.6286199999999837
21
-117.0078299999999984
0
LINE
8
BLACK
6
CONTINUOUS
10
136.6286199999999837
20
-117.0078299999999984
11
136.260407999999984
21
-116.9564669999999893
0
LINE
8
BLACK
6
CONTINUOUS
10
136.260407999999984
20
-116.9564669999999893
11
135.8985059999999976
21
-116.8713479999999976
0
LINE
8
BLACK
6
CONTINUOUS
10
135.8985059999999976
20
-116.8713479999999976
11
135.5460019999999872
21
-116.75320099999999
0
LINE
8
BLACK
6
CONTINUOUS
10
135.5460019999999872
20
-116.75320099999999
11
135.2059030000000064
21
-116.6030319999999989
0
LINE
8
BLACK
6
CONTINUOUS
10
135.2059030000000064
20
-116.6030319999999989
11
134.8811110000000042
21
-116.4221239999999966
0
LINE
8
BLACK
6
CONTINUOUS
10
134.8811110000000042
20
-116.4221239999999966
11
134.5743960000000072
21
-116.212018999999998
0
LINE
8
BLACK
6
CONTINUOUS
10
134.5743960000000072
20
-116.212018999999998
11
134.288375000000002
21
-115.9745109999999926
0
LINE
8
BLACK
6
CONTINUOUS
10
134.288375000000002
20
-115.9745109999999926
11
134.0254889999999932
21
-115.711624999999998
0
LINE
8
BLACK
6
CONTINUOUS
10
134.0254889999999932
20
-115.711624999999998
11
133.787981000000002
21
-115.4256039999999928
0
LINE
8
BLACK
6
CONTINUOUS
10
133.787981000000002
20
-115.4256039999999928
11
133.5778760000000034
21
-115.1188889999999958
0
LINE
8
BLACK
6
CONTINUOUS
10
133.5778760000000034
20
-115.1188889999999958
11
133.3969679999999869
21
-114.7940969999999936
0
LINE
8
BLACK
6
CONTINUOUS
10
133.3969679999999869
20
-114.7940969999999936
11
133.2467989999999816
21
-114.4539979999999986
0
LINE
8
BLACK
6
CONTINUOUS
10
133.2467989999999816
20
-114.4539979999999986
11
133.1286519999999882
21
-114.1014939999999882
0
LINE
8
BLACK
6
CONTINUOUS
10
133.1286519999999882
20
-114.1014939999999882
11
133.0435329999999965
21
-113.7395920000000018
0
LINE
8
BLACK
6
CONTINUOUS
10
133.0435329999999965
20
-113.7395920000000018
11
132.9921699999999873
21
-113.3713799999999878
0
LINE
8
BLACK
6
CONTINUOUS
10
132.9921699999999873
20
-113.3713799999999878
11
132.9749999999999943
21
-113.
0
LINE
8
BLACK
6
CONTINUOUS
10
132.9749999999999943
20
-113.
11
132.9749999999999943
21
-55.
0
LINE
8
BLACK
6
CONTINUOUS
10
132.9749999999999943
20
-55.
11
132.9921699999999873
21
-54.628619999999998
0
LINE
8
BLACK
6
CONTINUOUS
10
132.9921699999999873
20
-54.628619999999998
11
133.0435329999999965
21
-54.2604079999999982
0
LINE
8
BLACK
6
CONTINUOUS
10
133.0435329999999965
20
-54.2604079999999982
11
133.1286519999999882
21
-53.8985059999999976
0
LINE
8
BLACK
6
CONTINUOUS
10
133.1286519999999882
20
-53.8985059999999976
11
133.2467989999999816
21
-53.5460019999999943
0
LINE
8
BLACK
6
CONTINUOUS
10
133.2467989999999816
20
-53.5460019999999943
11
133.3969679999999869
21
-53.2059029999999993
0
LINE
8
BLACK
6
CONTINUOUS
10
133.3969679999999869
20
-53.2059029999999993
11
133.5778760000000034
21
-52.8811109999999971
0
LINE
8
BLACK
6
CONTINUOUS
10
133.5778760000000034
20
-52.8811109999999971
11
133.787981000000002
21
-52.5743960000000001
0
LINE
8
BLACK
6
CONTINUOUS
10
133.787981000000002
20
-52.5743960000000001
11
134.0254889999999932
21
-52.2883749999999949
0
LINE
8
BLACK
6
CONTINUOUS
10
134.0254889999999932
20
-52.2883749999999949
11
134.288375000000002
21
-52.0254890000000003
0
LINE
8
BLACK
6
CONTINUOUS
10
134.288375000000002
20
-52.0254890000000003
11
134.5743960000000072
21
-51.7879809999999949
0
LINE
8
BLACK
6
CONTINUOUS
10
134.5743960000000072
20
-51.7879809999999949
11
134.8811110000000042
21
-51.5778759999999963
0
LINE
8
BLACK
6
CONTINUOUS
10
134.8811110000000042
20
-51.5778759999999963
11
135.2059030000000064
21
-51.3969680000000011
0
LINE
8
BLACK
6
CONTINUOUS
10
135.2059030000000064
20
-51.3969680000000011
11
135.5460019999999872
21
-51.2467989999999958
0
LINE
8
BLACK
6
CONTINUOUS
10
135.5460019999999872
20
-51.2467989999999958
11
135.8985059999999976
21
-51.1286519999999953
0
LINE
8
BLACK
6
CONTINUOUS
10
135.8985059999999976
20
-51.1286519999999953
11
136.260407999999984
21
-51.0435329999999965
0
LINE
8
BLACK
6
CONTINUOUS
10
136.260407999999984
20
-51.0435329999999965
11
136.6286199999999837
21
-50.9921699999999944
0
LINE
8
BLACK
6
CONTINUOUS
10
136.6286199999999837
20
-50.9921699999999944
11
137.
21
-50.9749999999999943
0
LINE
8
BLACK
6
CONTINUOUS
10
137.
20
-50.9749999999999943
11
186.
21
-50.9749999999999943
0
LINE
8
BLACK
6
CONTINUOUS
10
137.
20
-51.0249999999999986
11
136.8162250000000029
21
-51.0249999999999986
0
LINE
8
BLACK
6
CONTINUOUS
10
136.8162250000000029
20
-51.0249999999999986
11
136.4502420000000029
21
-51.0589129999999969
0
LINE
8
BLACK
6
CONTINUOUS
10
136.4502420000000029
20
-51.0589129999999969
11
136.0889489999999853
21
-51.1264509999999959
0
LINE
8
BLACK
6
CONTINUOUS
10
136.0889489999999853
20
-51.1264509999999959
11
135.735430000000008
21
-51.2270359999999982
0
LINE
8
BLACK
6
CONTINUOUS
10
135.735430000000008
20
-51.2270359999999982
11
135.3926989999999932
21
-51.359809999999996
0
LINE
8
BLACK
6
CONTINUOUS
10
135.3926989999999932
20
-51.359809999999996
11
135.0636810000000025
21
-51.5236419999999953
0
LINE
8
BLACK
6
CONTINUOUS
10
135.0636810000000025
20
-51.5236419999999953
11
134.7511829999999975
21
-51.7171319999999994
0
LINE
8
BLACK
6
CONTINUOUS
10
134.7511829999999975
20
-51.7171319999999994
11
134.457870999999983
21
-51.9386310000000009
0
LINE
8
BLACK
6
CONTINUOUS
10
134.457870999999983
20
-51.9386310000000009
11
134.1862480000000062
21
-52.1862479999999991
0
LINE
8
BLACK
6
CONTINUOUS
10
134.1862480000000062
20
-52.1862479999999991
11
133.9386309999999867
21
-52.4578709999999973
0
LINE
8
BLACK
6
CONTINUOUS
10
133.9386309999999867
20
-52.4578709999999973
11
133.7171319999999923
21
-52.7511829999999975
0
LINE
8
BLACK
6
CONTINUOUS
10
133.7171319999999923
20
-52.7511829999999975
11
133.5236419999999953
21
-53.0636809999999954
0
LINE
8
BLACK
6
CONTINUOUS
10
133.5236419999999953
20
-53.0636809999999954
11
133.3598099999999818
21
-53.3926990000000004
0
LINE
8
BLACK
6
CONTINUOUS
10
133.3598099999999818
20
-53.3926990000000004
11
133.2270359999999982
21
-53.7354300000000009
0
LINE
8
BLACK
6
CONTINUOUS
10
133.2270359999999982
20
-53.7354300000000009
11
133.126451000000003
21
-54.0889489999999995
0
LINE
8
BLACK
6
CONTINUOUS
10
133.126451000000003
20
-54.0889489999999995
11
133.0589129999999898
21
-54.4502419999999958
0
LINE
8
BLACK
6
CONTINUOUS
10
133.0589129999999898
20
-54.4502419999999958
11
133.0250000000000057
21
-54.8162249999999958
0
LINE
8
BLACK
6
CONTINUOUS
10
133.0250000000000057
20
-54.8162249999999958
11
133.0250000000000057
21
-55.
0
LINE
8
BLACK
6
CONTINUOUS
10
133.0250000000000057
20
-55.
11
133.0250000000000057
21
-113.
0
LINE
8
BLACK
6
CONTINUOUS
10
133.0250000000000057
20
-113.
11
133.0250000000000057
21
-113.1837749999999971
0
LINE
8
BLACK
6
CONTINUOUS
10
133.0250000000000057
20
-113.1837749999999971
11
133.0589129999999898
21
-113.5497579999999971
0
LINE
8
BLACK
6
CONTINUOUS
10
133.0589129999999898
20
-113.5497579999999971
11
133.126451000000003
21
-113.9110510000000005
0
LINE
8
BLACK
6
CONTINUOUS
10
133.126451000000003
20
-113.9110510000000005
11
133.2270359999999982
21
-114.264569999999992
0
LINE
8
BLACK
6
CONTINUOUS
10
133.2270359999999982
20
-114.264569999999992
11
133.3598099999999818
21
-114.6073009999999925
0
LINE
8
BLACK
6
CONTINUOUS
10
133.3598099999999818
20
-114.6073009999999925
11
133.5236419999999953
21
-114.9363189999999975
0
LINE
8
BLACK
6
CONTINUOUS
10
133.5236419999999953
20
-114.9363189999999975
11
133.7171319999999923
21
-115.2488169999999883
0
LINE
8
BLACK
6
CONTINUOUS
10
133.7171319999999923
20
-115.2488169999999883
11
133.9386309999999867
21
-115.5421289999999885
0
LINE
8
BLACK
6
CONTINUOUS
10
133.9386309999999867
20
-115.5421289999999885
11
134.1862480000000062
21
-115.8137519999999938
0
LINE
8
BLACK
6
CONTINUOUS
10
134.1862480000000062
20
-115.8137519999999938
11
134.457870999999983
21
-116.0613689999999991
0
LINE
8
BLACK
6
CONTINUOUS
10
134.457870999999983
20
-116.0613689999999991
11
134.7511829999999975
21
-116.2828679999999935
0
LINE
8
BLACK
6
CONTINUOUS
10
134.7511829999999975
20
-116.2828679999999935
11
135.0636810000000025
21
-116.4763579999999905
0
LINE
8
BLACK
6
CONTINUOUS
10
135.0636810000000025
20
-116.4763579999999905
11
135.3926989999999932
21
-116.6401899999999898
0
LINE
8
BLACK
6
CONTINUOUS
10
135.3926989999999932
20
-116.6401899999999898
11
135.735430000000008
21
-116.7729640000000018
0
LINE
8
BLACK
6
CONTINUOUS
10
135.735430000000008
20
-116.7729640000000018
11
136.0889489999999853
21
-116.873548999999997
0
LINE
8
BLACK
6
CONTINUOUS
10
136.0889489999999853
20
-116.873548999999997
11
136.4502420000000029
21
-116.941086999999996
0
LINE
8
BLACK
6
CONTINUOUS
10
136.4502420000000029
20
-116.941086999999996
11
136.8162250000000029
21
-116.9749999999999943
0
LINE
8
BLACK
6
CONTINUOUS
10
136.8162250000000029
20
-116.9749999999999943
11
137.
21
-116.9749999999999943
0
LINE
8
BLACK
6
CONTINUOUS
10
137.
20
-116.9749999999999943
11
186.
21
-116.9749999999999943
0
LINE
8
BLACK
6
CONTINUOUS
10
186.
20
-116.9749999999999943
11
186.1837749999999971
21
-116.9749999999999943
0
LINE
8
BLACK
6
CONTINUOUS
10
186.1837749999999971
20
-116.9749999999999943
11
186.5497579999999971
21
-116.941086999999996
0
LINE
8
BLACK
6
CONTINUOUS
10
186.5497579999999971
20
-116.941086999999996
11
186.9110509999999863
21
-116.873548999999997
0
LINE
8
BLACK
6
CONTINUOUS
10
186.9110509999999863
20
-116.873548999999997
11
187.264569999999992
21
-116.7729640000000018
0
LINE
8
BLACK
6
CONTINUOUS
10
187.264569999999992
20
-116.7729640000000018
11
187.6073009999999783
21
-116.6401899999999898
0
LINE
8
BLACK
6
CONTINUOUS
10
187.6073009999999783
20
-116.6401899999999898
11
187.9363189999999975
21
-116.4763579999999905
0
LINE
8
BLACK
6
CONTINUOUS
10
187.9363189999999975
20
-116.4763579999999905
11
188.2488170000000025
21
-116.2828679999999935
0
LINE
8
BLACK
6
CONTINUOUS
10
188.2488170000000025
20
-116.2828679999999935
11
188.5421289999999885
21
-116.0613689999999991
0
LINE
8
BLACK
6
CONTINUOUS
10
188.5421289999999885
20
-116.0613689999999991
11
188.8137519999999938
21
-115.8137519999999938
0
LINE
8
BLACK
6
CONTINUOUS
10
188.8137519999999938
20
-115.8137519999999938
11
189.0613689999999849
21
-115.5421289999999885
0
LINE
8
BLACK
6
CONTINUOUS
10
189.0613689999999849
20
-115.5421289999999885
11
189.2828679999999792
21
-115.2488169999999883
0
LINE
8
BLACK
6
CONTINUOUS
10
189.2828679999999792
20
-115.2488169999999883
11
189.4763580000000047
21
-114.9363189999999975
0
LINE
8
BLACK
6
CONTINUOUS
10
189.4763580000000047
20
-114.9363189999999975
11
189.6401899999999898
21
-114.6073009999999925
0
LINE
8
BLACK
6
CONTINUOUS
10
189.6401899999999898
20
-114.6073009999999925
11
189.7729640000000018
21
-114.264569999999992
0
LINE
8
BLACK
6
CONTINUOUS
10
189.7729640000000018
20
-114.264569999999992
11
189.873548999999997
21
-113.9110510000000005
0
LINE
8
BLACK
6
CONTINUOUS
10
189.873548999999997
20
-113.9110510000000005
11
189.9410869999999818
21
-113.5497579999999971
0
LINE
8
BLACK
6
CONTINUOUS
10
189.9410869999999818
20
-113.5497579999999971
11
189.9749999999999943
21
-113.1837749999999971
0
LINE
8
BLACK
6
CONTINUOUS
10
189.9749999999999943
20
-113.1837749999999971
11
189.9749999999999943
21
-113.
0
LINE
8
BLACK
6
CONTINUOUS
10
189.9749999999999943
20
-113.
11
189.9749999999999943
21
-55.
0
LINE
8
BLACK
6
CONTINUOUS
10
189.9749999999999943
20
-55.
11
189.9749999999999943
21
-54.8162249999999958
0
LINE
8
BLACK
6
CONTINUOUS
10
189.9749999999999943
20
-54.8162249999999958
11
189.9410869999999818
21
-54.4502419999999958
0
LINE
8
BLACK
6
CONTINUOUS
10
189.9410869999999818
20
-54.4502419999999958
11
189.873548999999997
21
-54.0889489999999995
0
LINE
8
BLACK
6
CONTINUOUS
10
189.873548999999997
20
-54.0889489999999995
11
189.7729640000000018
21
-53.7354300000000009
0
LINE
8
BLACK
6
CONTINUOUS
10
189.7729640000000018
20
-53.7354300000000009
11
189.6401899999999898
21
-53.3926990000000004
0
LINE
8
BLACK
6
CONTINUOUS
10
189.6401899999999898
20
-53.3926990000000004
11
189.4763580000000047
21
-53.0636809999999954
0
LINE
8
BLACK
6
CONTINUOUS
10
189.4763580000000047
20
-53.0636809999999954
11
189.2828679999999792
21
-52.7511829999999975
0
LINE
8
BLACK
6
CONTINUOUS
10
189.2828679999999792
20
-52.7511829999999975
11
189.0613689999999849
21
-52.4578709999999973
0
LINE
8
BLACK
6
CONTINUOUS
10
189.0613689999999849
20
-52.4578709999999973
11
188.8137519999999938
21
-52.1862479999999991
0
LINE
8
BLACK
6
CONTINUOUS
10
188.8137519999999938
20
-52.1862479999999991
11
188.5421289999999885
21
-51.9386310000000009
0
LINE
8
BLACK
6
CONTINUOUS
10
188.5421289999999885
20
-51.9386310000000009
11
188.2488170000000025
21
-51.7171319999999994
0
LINE
8
BLACK
6
CONTINUOUS
10
188.2488170000000025
20
-51.7171319999999994
11
187.9363189999999975
21
-51.5236419999999953
0
LINE
8
BLACK
6
CONTINUOUS
10
187.9363189999999975
20
-51.5236419999999953
11
187.6073009999999783
21
-51.359809999999996
0
LINE
8
BLACK
6
CONTINUOUS
10
187.6073009999999783
20
-51.359809999999996
11
187.264569999999992
21
-51.2270359999999982
0
LINE
8
BLACK
6
CONTINUOUS
10
187.264569999999992
20
-51.2270359999999982
11
186.9110509999999863
21
-51.1264509999999959
0
LINE
8
BLACK
6
CONTINUOUS
10
186.9110509999999863
20
-51.1264509999999959
11
186.5497579999999971
21
-51.0589129999999969
0
LINE
8
BLACK
6
CONTINUOUS
10
186.5497579999999971
20
-51.0589129999999969
11
186.1837749999999971
21
-51.0249999999999986
0
LINE
8
BLACK
6
CONTINUOUS
10
186.1837749999999971
20
-51.0249999999999986
11
186.
21
-51.0249999999999986
0
LINE
8
BLACK
6
CONTINUOUS
10
186.
20
-51.0249999999999986
11
137.
21
-51.0249999999999986
  0
ENDSEC
  0
EOF
